<svg width="20" height="20" viewBox="0 0 20 20" fill="none" xmlns="http://www.w3.org/2000/svg">
    <rect width="20" height="20" fill="white"/>
    <path d="M8.33329 3.74999V15C8.33329 15.9 7.96661 16.725 7.38328 17.325L7.34997 17.3583C7.27497 17.4333 7.19163 17.5083 7.11663 17.5667C6.86663 17.7833 6.58328 17.95 6.29162 18.0666C6.19995 18.1083 6.10829 18.1417 6.01663 18.175C5.69163 18.2833 5.34163 18.3333 4.99996 18.3333C4.77496 18.3333 4.54997 18.3083 4.3333 18.2667C4.22497 18.2417 4.11662 18.2167 4.00829 18.1833C3.87496 18.1417 3.74996 18.1 3.62496 18.0417C3.62496 18.0333 3.62496 18.0333 3.61662 18.0417C3.38329 17.925 3.1583 17.7917 2.94997 17.6333L2.94162 17.625C2.83329 17.5417 2.7333 17.4583 2.64164 17.3583C2.54997 17.2583 2.45829 17.1583 2.36662 17.05C2.20829 16.8417 2.07496 16.6167 1.9583 16.3833C1.96663 16.375 1.96663 16.375 1.9583 16.375C1.9583 16.375 1.95829 16.3667 1.94996 16.3583C1.89996 16.2417 1.85829 16.1167 1.81662 15.9917C1.78329 15.8833 1.75828 15.775 1.73328 15.6667C1.69161 15.45 1.66663 15.225 1.66663 15V3.74999C1.66663 2.49999 2.49996 1.66666 3.74996 1.66666H6.24996C7.49996 1.66666 8.33329 2.49999 8.33329 3.74999Z" stroke="#4D94FF" stroke-width="1.5" stroke-linecap="round" stroke-linejoin="round"/>
    <path d="M18.3333 13.75V16.25C18.3333 17.5 17.5 18.3333 16.25 18.3333H5C5.34167 18.3333 5.69167 18.2833 6.01667 18.175C6.10833 18.1417 6.19999 18.1083 6.29166 18.0667C6.58332 17.95 6.86667 17.7833 7.11667 17.5667C7.19167 17.5083 7.27501 17.4333 7.35001 17.3583L7.38332 17.325L13.05 11.6667H16.25C17.5 11.6667 18.3333 12.5 18.3333 13.75Z" stroke="#4D94FF" stroke-width="1.5" stroke-linecap="round" stroke-linejoin="round"/>
    <path d="M4.00832 18.1833C3.50832 18.0333 3.03333 17.7583 2.64167 17.3583C2.24167 16.9667 1.96665 16.4917 1.81665 15.9917C2.14165 17.0333 2.96665 17.8583 4.00832 18.1833Z" stroke="#4D94FF" stroke-width="1.5" stroke-linecap="round" stroke-linejoin="round"/>
    <path d="M15.3083 9.40833L13.05 11.6667L7.3833 17.325C7.96663 16.725 8.33331 15.9 8.33331 15V6.95L10.5916 4.69167C11.475 3.80834 12.6583 3.80834 13.5416 4.69167L15.3083 6.45834C16.1916 7.34167 16.1916 8.525 15.3083 9.40833Z" stroke="#4D94FF" stroke-width="1.5" stroke-linecap="round" stroke-linejoin="round"/>
    <path d="M4.99996 15.8333C5.4602 15.8333 5.83329 15.4602 5.83329 15C5.83329 14.5398 5.4602 14.1667 4.99996 14.1667C4.53972 14.1667 4.16663 14.5398 4.16663 15C4.16663 15.4602 4.53972 15.8333 4.99996 15.8333Z" stroke="#4D94FF" stroke-width="1.5" stroke-linecap="round" stroke-linejoin="round"/>
</svg>
