<svg width="20" height="20" viewBox="0 0 20 20" fill="none" xmlns="http://www.w3.org/2000/svg">
    <path d="M9.99996 14.1667V16.15C9.99996 17.7083 9.37496 18.3333 7.80829 18.3333H3.84996C2.29163 18.3333 1.66663 17.7083 1.66663 16.15V12.1917C1.66663 10.625 2.29163 10 3.84996 10H5.83329V11.975C5.83329 13.5417 6.45829 14.1667 8.01663 14.1667H9.99996Z" stroke="#2592F8" stroke-width="1.5" stroke-linecap="round" stroke-linejoin="round"/>
    <path d="M14.1667 10V11.975C14.1667 13.5417 13.5417 14.1667 11.975 14.1667H8.01671C6.45837 14.1667 5.83337 13.5417 5.83337 11.975V8.01668C5.83337 6.45834 6.45837 5.83334 8.01671 5.83334H10V7.80834C10 9.37501 10.625 10 12.1834 10H14.1667Z" stroke="#2592F8" stroke-width="1.5" stroke-linecap="round" stroke-linejoin="round"/>
    <path d="M18.3333 3.84999V7.80832C18.3333 9.37499 17.7083 9.99999 16.1417 9.99999H12.1833C10.625 9.99999 10 9.37499 10 7.80832V3.84999C10 2.29166 10.625 1.66666 12.1833 1.66666H16.1417C17.7083 1.66666 18.3333 2.29166 18.3333 3.84999Z" stroke="#2592F8" stroke-width="1.5" stroke-linecap="round" stroke-linejoin="round"/>
</svg>
