<svg width="21" height="21" viewBox="0 0 21 21" fill="none" xmlns="http://www.w3.org/2000/svg">
    <path d="M3.6486 13.3875L7.61234 17.3513C9.23984 18.9788 11.8823 18.9788 13.5186 17.3513L17.3598 13.51C18.9873 11.8825 18.9873 9.24004 17.3598 7.60379L13.3873 3.64879C12.5561 2.81754 11.4098 2.37129 10.2373 2.43254L5.86234 2.64254C4.11234 2.72129 2.7211 4.11254 2.6336 5.85379L2.4236 10.2288C2.3711 11.41 2.81735 12.5563 3.6486 13.3875Z" stroke="#2592F8" stroke-width="1.5" stroke-linecap="round" stroke-linejoin="round"/>
    <path d="M8.31238 10.5001C9.5205 10.5001 10.4999 9.52068 10.4999 8.31256C10.4999 7.10444 9.5205 6.12506 8.31238 6.12506C7.10426 6.12506 6.12488 7.10444 6.12488 8.31256C6.12488 9.52068 7.10426 10.5001 8.31238 10.5001Z" stroke="#2592F8" stroke-width="1.5" stroke-linecap="round"/>
</svg>
